<?xml version="1.0" encoding="utf-8"?>
<svg width="96.22" height="103.042" viewBox="0 0 96.22 103.042" xmlns="http://www.w3.org/2000/svg">
  <defs>
    <style>.a{fill:none;stroke:#dfdfdf;stroke-linecap:round;stroke-linejoin:round;stroke-miterlimit:10;stroke-width:0.72px;}</style>
  </defs>
  <path class="a" d="M 85.038 73.8 C 92.862 77.211 94.489 86.519 91.86 93.982 M 38.992 68.682 C 47.519 53.337 54.341 43.1 61.163 19.229 M 61.163 19.229 C 64.573 43.1 69.69 56.748 76.511 72.435 M 59.1 75.842 L 56.384 87.616 C 56.384 99.383 64.573 111.321 80.089 111.321 C 95.267 111.321 105.5 101.088 105.5 87.616 C 105.5 75.845 98.678 66.98 86.74 66.98 C 82.6 66.843 78.701 68.921 76.507 72.434 C 74.488 71.026 72.067 70.309 69.607 70.391 C 61.163 70.392 56.384 78.919 56.384 87.616 L 59.1 75.842 Z M 44.108 94.267 C 46.523 91.637 47.519 87.493 47.519 84.034 C 47.519 80.623 46.533 76.285 44.108 73.801 M 35.581 9 C 27.054 9 16.822 12.407 10 19.229 C 16.822 26.051 27.054 29.462 35.581 29.462 C 47.519 29.462 54.526 26.051 61.347 19.229 C 54.526 12.407 47.519 9 35.581 9 Z M 59.1 75.846 C 56.388 68.687 46.76 63.741 39 68.687 C 36.717 66.457 33.664 65.189 30.473 65.147 C 20.24 65.147 13.419 72.098 13.419 85.742 C 13.419 101.094 21.946 111.323 37.295 111.323 C 47.528 111.323 54.349 106.21 57.76 97.68" transform="translate(-9.64 -8.64)" style="paint-order: fill; fill: rgb(103, 75, 177);"/>
</svg>